<?xml version="1.0" encoding="UTF-8" standalone="no"?>
<svg
   width="880.94"
   height="183.45276"
   viewBox="0 0 880.94001 183.45277"
   fill="none"
   version="1.1"
   id="svg17"
   xmlns="http://www.w3.org/2000/svg"
   xmlns:svg="http://www.w3.org/2000/svg">
  <defs
     id="defs17" />
  <path
     d="m 875.16276,127.00426 c -6.478,-0.439 -13.371,-0.655 -23.426,-0.655 -1.406,15.399 -2.173,30.902 -2.492,52.963 h -28.626 c 2.052,-17.532 3.123,-35.088 3.234,-52.963 -16.645,0 -19.847,0.44 -23.41,0.655 l 0.991,-19.496 h 74.695 z m -110.454,52.316 c 1.414,-20.663 3.259,-40.375 3.259,-71.812 h 29.177 c -1.837,23.37 -3.123,39.512 -3.123,71.812 h -29.305 z m -2.404,-52.531 c -6.797,-0.328 -14.393,-0.44 -21.19,-0.44 h -14.936 l -0.527,7.149 c 9.696,0 20.143,0.159 29.84,0 l -1.19,19.337 h -29.529 c -0.287,8.801 -0.575,17.651 -0.639,26.477 h -29.728 c 1.949,-13.227 4.529,-53.394 4.202,-71.812 h 64.671 l -0.974,19.281 z m -101.061,52.531 h 29.6 c -9.401,-23.666 -18.251,-47.683 -26.581,-71.812 h -33.618 c -9.497,20.023 -29.392,56.421 -38.578,71.812 h 30.791 l 8.49,-18.874 h 23.786 c 2.188,6.222 4.488,12.476 6.094,18.874 m -15.128,-52.42 5,16.51 h -12.54 z m -54.192,-0.111 c -6.789,-0.328 -14.377,-0.44 -21.19,-0.44 h -14.92 l -0.535,7.149 c 9.704,0 19.368,0.159 29.065,0 l -1.166,19.337 h -29.313 l -0.527,7.643 c 12.348,0 24.624,-0.319 36.948,-0.966 l -0.99,19.8 h -65.263 c 3.419,-23.211 4.617,-48.346 4.201,-71.812 h 64.664 l -0.982,19.281 z"
     fill="#000000"
     id="path1"
     style="fill:#000000" />
  <path
     d="m 540.48676,68.755258 c 0.167,-2.1724 0.343,-4.3769 0.463,-6.4136 h -10.687 c -0.136,5.3354 -0.455,9.9516 -0.735,13.8096 -0.247,3.323 -0.439,6.094 -0.439,8.243 0,2.292 1.078,4.592 3.858,6.198 2.38,1.39 6.006,2.284 11.222,2.284 7.3,0 11.293,-1.829 13.466,-4.073 2.14,-2.189 2.516,-4.769 2.54,-6.382 0.136,-5.886 0.974,-17.1563 1.198,-20.0716 h -10.911 c -0.095,3.7859 -0.351,12.6756 -1.27,18.4106 -0.247,1.549 -0.622,2.651 -1.389,3.402 -0.759,0.767 -1.853,1.102 -3.555,1.102 -1.701,0 -2.755,-0.654 -3.458,-1.749 -0.655,-1.03 -0.911,-2.436 -0.911,-4.017 0,-2.995 0.296,-6.837 0.6,-10.735"
     fill="#000000"
     id="path2"
     style="fill:#000000" />
  <path
     d="m 566.59676,76.902258 c -0.344,6.238 -0.807,11.909 -1.159,15.359 h 9.561 c 0.056,-5.615 0.28,-10.063 0.415,-13.242 0.064,-1.31 0.112,-2.38 0.152,-3.211 v -0.599 l 0.024,-1.614 c 1.102,1.726 1.917,3.499 2.788,5.336 1.669,3.578 3.554,7.204 5.415,10.822 0.383,0.719 0.751,1.406 1.31,2.508 h 13.099 c 0.119,-5.016 0.351,-10 0.647,-14.999 0.295,-4.944 0.679,-9.9205 1.11,-14.9284 h -9.896 c -0.032,2.7236 -0.096,5.4153 -0.192,8.0834 -0.112,3.011 -0.255,5.95 -0.439,8.817 l -0.048,0.599 -0.088,1.789 c -0.823,-1.517 -1.541,-3.075 -2.26,-4.648 -0.943,-2.125 -1.917,-4.249 -2.916,-6.374 -1.294,-2.7313 -2.627,-5.5108 -4.009,-8.2664 h -13.067 c 0,4.6725 -0.184,9.7684 -0.455,14.5604"
     fill="#000000"
     id="path3"
     style="fill:#000000" />
  <path
     d="m 604.47876,88.707258 c -0.087,1.206 -0.167,2.396 -0.263,3.554 h 11.334 c 0.024,-13.298 0.551,-20.263 1.278,-29.9196 h -11.27 c -0.024,11.1736 -0.551,18.9296 -1.087,26.3656"
     fill="#000000"
     id="path4"
     style="fill:#000000" />
  <path
     d="m 630.90076,92.261258 h 12.579 l 14.864,-29.9196 h -11.022 c -1.222,3.2268 -2.62,6.3816 -4.002,9.5366 -1.453,3.331 -2.931,6.645 -4.177,10.056 -0.391,1.014 -0.791,2.029 -1.214,3.035 -0.295,-0.982 -0.551,-1.933 -0.799,-2.923 -0.846,-3.587 -1.892,-7.189 -2.931,-10.807 -0.862,-2.9472 -1.741,-5.9104 -2.476,-8.8976 h -10.966 c 0.679,1.9649 1.454,4.1853 2.22,6.3816 2.732,7.835 5.447,15.671 7.916,23.538"
     fill="#000000"
     id="path5"
     style="fill:#000000" />
  <path
     d="m 684.01476,69.298258 c 1.246,0.04 2.476,0.064 3.722,0.136 l 0.375,-7.0926 h -25.886 c 0.04,3.8418 -0.184,9.4886 -0.495,15.0076 -0.335,5.927 -0.799,11.693 -1.206,14.912 h 25.966 l 0.487,-7.292 c -1.885,0.096 -3.642,0.2 -5.75,0.256 -2.381,0.079 -5.152,0.127 -8.938,0.127 h -0.671 l 0.056,-0.671 0.232,-3.322 0.04,-0.599 h 12.451 l 0.416,-7.093 c -0.751,0.016 -1.534,0.048 -2.332,0.08 -1.582,0.048 -3.139,0.104 -4.633,0.104 h -5.383 l 0.048,-0.679 0.231,-3.323 0.04,-0.591 h 6.933 c 1.366,0 2.803,0.016 4.321,0.04"
     fill="#000000"
     id="path6"
     style="fill:#000000" />
  <path
     d="m 703.11176,81.279258 c 0.136,-3.906 0.311,-7.796 0.559,-11.661 l 0.04,-0.591 h 3.466 c 2.66,0 5.543,0 5.543,3.067 0,1.389 -0.623,2.332 -1.549,2.955 -1.102,0.759 -2.652,0.998 -3.978,0.998 -0.343,0 -0.695,-0.024 -1.054,-0.048 l -0.072,-0.016 c 0.695,2.604 1.358,5.232 1.989,7.892 0.679,2.803 1.294,5.583 1.933,8.386 h 11.174 c -0.448,-1.262 -0.903,-2.532 -1.35,-3.802 -1.022,-2.899 -2.069,-5.79 -2.971,-8.762 l -0.152,-0.519 0.487,-0.215 c 1.909,-0.863 3.379,-2.005 4.337,-3.459 0.927,-1.406 1.406,-3.107 1.406,-5.144 0,-3.7535 -1.829,-5.7422 -4.121,-6.7886 -2.381,-1.1022 -5.256,-1.23 -7.133,-1.23 h -17.707 c 0,5.0079 -0.072,9.9996 -0.296,15.0316 -0.216,4.968 -0.599,9.936 -1.182,14.888 h 10.399 c 0.048,-3.65 0.136,-7.324 0.248,-10.982"
     fill="#000000"
     id="path7"
     style="fill:#000000" />
  <path
     d="m 746.84176,69.211258 c 0.934,0.223 1.837,0.487 2.691,0.806 l -0.575,-7.5394 c -1.342,-0.2715 -2.723,-0.4872 -4.105,-0.6389 -1.422,-0.1518 -2.844,-0.2317 -4.273,-0.2317 -4.05,0 -6.877,0.8946 -8.754,2.2444 -2.316,1.6374 -3.219,3.9616 -3.219,6.0706 0,4.329 3.65,7.132 6.478,9.305 1.98,1.549 3.578,2.795 3.578,4.265 0,2.044 -2.852,2.044 -4.106,2.044 -1.413,0 -3.075,-0.343 -4.696,-0.814 -1.222,-0.336 -2.436,-0.743 -3.466,-1.126 l 0.718,8.122 c 1.438,0.208 3.059,0.456 4.681,0.647 1.805,0.208 3.626,0.352 5.215,0.352 4.289,0 7.229,-0.967 9.162,-2.42 2.42,-1.805 3.298,-4.369 3.298,-6.717 0,-3.643 -3.514,-6.334 -6.317,-8.451 -2.045,-1.557 -3.746,-2.851 -3.746,-4.257 0,-1.086 0.83,-1.613 1.805,-1.869 0.806,-0.192 1.685,-0.224 2.172,-0.224 1.15,0 2.324,0.152 3.459,0.416"
     fill="#000000"
     id="path8"
     style="fill:#000000" />
  <path
     d="m 755.31576,88.723258 c -0.072,1.19 -0.184,2.388 -0.255,3.538 h 11.166 c 0.008,-13.298 0.535,-20.263 1.277,-29.9196 h -11.11 c -0.024,11.1736 -0.567,18.9296 -1.078,26.3816 z"
     fill="#000000"
     id="path9"
     style="fill:#000000" />
  <path
     d="m 790.75476,83.515258 c -1.454,1.382 -3.419,1.837 -5.519,1.837 -0.304,0 -0.647,-0.016 -0.975,-0.048 -0.311,-0.016 -0.615,-0.048 -0.958,-0.111 l -0.551,-0.072 0.024,-0.567 0.646,-14.497 0.024,-0.503 0.496,-0.08 c 0.407,-0.072 0.806,-0.12 1.206,-0.168 0.399,-0.024 0.798,-0.04 1.198,-0.04 2.284,0 3.969,0.607 5.104,1.813 1.134,1.198 1.661,2.932 1.661,5.24 0,3.578 -0.919,5.838 -2.364,7.204 m 9.864,-17.5554 c -2.149,-2.3722 -5.312,-3.6262 -9.257,-3.6262 h -17.812 c -0.008,8.2826 -0.231,14.6006 -0.527,19.5046 -0.279,4.593 -0.599,7.915 -0.854,10.415 h 16.98 c 4.569,0 8.211,-1.597 10.727,-4.329 2.62,-2.851 4.041,-6.949 4.041,-11.773 0,-4.425 -1.182,-7.8752 -3.298,-10.1914 z"
     fill="#000000"
     id="path10"
     style="fill:#000000" />
  <path
     d="m 820.26676,78.388258 4.449,-10.0802 3.003,10.0802 z m 17.029,-0.647 c -1.861,-5.12 -3.666,-10.2479 -5.399,-15.3996 h -13.451 c -1.869,3.9936 -4.592,9.3526 -7.388,14.6806 -3.059,5.838 -6.19,11.565 -8.33,15.247 h 11.621 l 2.995,-6.829 0.176,-0.367 h 11.709 l 0.152,0.415 0.008,0.016 c 0.766,2.244 1.549,4.473 2.14,6.765 h 11.198 c -1.861,-4.792 -3.666,-9.64 -5.431,-14.52"
     fill="#000000"
     id="path11"
     style="fill:#000000" />
  <path
     d="m 864.39576,83.515258 c -1.47,1.39 -3.418,1.837 -5.519,1.837 -0.319,0 -0.655,-0.016 -0.974,-0.048 -0.304,-0.016 -0.615,-0.048 -0.967,-0.111 l -0.535,-0.072 0.024,-0.567 0.647,-14.497 0.016,-0.503 0.487,-0.08 c 0.407,-0.072 0.799,-0.12 1.214,-0.168 0.407,-0.024 0.783,-0.04 1.182,-0.04 2.293,0 3.978,0.607 5.12,1.813 1.118,1.198 1.661,2.932 1.661,5.24 0,3.578 -0.918,5.838 -2.364,7.204 m 9.848,-17.5554 c -2.148,-2.3722 -5.311,-3.6262 -9.241,-3.6262 h -17.811 c -0.024,8.2826 -0.232,14.6006 -0.519,19.5046 -0.288,4.593 -0.623,7.915 -0.879,10.415 h 16.997 c 4.568,0 8.194,-1.597 10.726,-4.329 2.612,-2.851 4.034,-6.949 4.034,-11.773 0,-4.425 -1.166,-7.8752 -3.307,-10.1914 z"
     fill="#000000"
     id="path12"
     style="fill:#000000" />
  <path
     d="m 288.56576,120.60826 c 0,-16.685 -8.338,-25.767002 -24.416,-25.767002 h -24.537 v 51.525002 h 24.537 c 16.07,0 24.416,-9.081 24.416,-25.766 z"
     fill="#000000"
     id="path13"
     style="fill:#000000" />
  <path
     d="M 2.3869603,179.90526 H 423.68376 V 61.304558 H 2.3869603 Z M 363.03776,76.688258 c 24.416,0 44.288,19.384 44.288,44.288002 0,24.904 -19.872,44.169 -44.288,44.169 -24.417,0 -44.161,-19.385 -44.161,-44.169 0,-24.784002 19.872,-44.288002 44.161,-44.288002 z m -142.81,2.819 c 0,-1.102 0.735,-1.837 1.837,-1.837 h 42.324 c 28.586,0 43.921,18.889 43.921,42.939002 0,24.049 -15.335,42.938 -43.921,42.938 h -42.324 c -1.102,0 -1.837,-0.734 -1.837,-1.837 V 79.515258 Z m -57.915,-2.819 c 24.417,0 44.289,19.384 44.289,44.288002 0,24.904 -19.872,44.169 -44.289,44.169 -24.416,0 -44.168,-19.385 -44.168,-44.169 0,-24.784002 19.871,-44.288002 44.168,-44.288002 z M 18.75256,120.60926 V 79.507258 c 0,-1.102 0.7348,-1.837 1.8371,-1.837 h 42.1001 c 28.482,0 43.809,18.762 43.913,42.691002 v 41.349 c 0,1.103 -0.735,1.837 -1.837,1.837 h -15.703 c -1.102,0 -1.837,-0.734 -1.837,-1.837 v -41.101 c 0,-16.685 -8.714,-25.767002 -24.784,-25.767002 h -24.3124 v 66.860002 c 0,1.103 -0.7348,1.837 -1.8371,1.837 h -15.7026 c -1.1023,0 -1.8371,-0.734 -1.8371,-1.837 v -41.101 z"
     fill="#000000"
     id="path14"
     style="fill:#000000" />
  <path
     d="m 162.31276,146.11826 c 13.986,0 24.537,-10.919 24.537,-25.152 0,-14.233 -10.551,-25.271002 -24.537,-25.271002 -13.985,0 -24.536,10.799002 -24.536,25.271002 0,14.473 10.671,25.152 24.536,25.152 z"
     fill="#000000"
     id="path15"
     style="fill:#000000" />
  <path
     d="m 363.03676,146.11826 c 13.986,0 24.537,-10.919 24.537,-25.152 0,-14.233 -10.551,-25.271002 -24.537,-25.271002 -13.985,0 -24.536,10.799002 -24.536,25.271002 0,14.473 10.671,25.152 24.536,25.152 z"
     fill="#000000"
     id="path16"
     style="fill:#000000" />
  <path
     d="m 423.68376,2.199058 v 59.1047 h 59.105 v -59.1047 z m 29.568,11.174 c 0.719,0 1.342,0.016 1.869,0.0559 0.528,0.04 0.967,0.1119 1.334,0.2077 0.36,0.0958 0.639,0.2077 0.847,0.3434 0.208,0.1358 0.351,0.3115 0.439,0.5352 l 15.423,31.7328 c 0.336,0.6789 0.208,1.1501 -0.375,1.4057 -0.583,0.2636 -1.701,0.3914 -3.363,0.3914 -1.054,0 -1.917,-0.016 -2.58,-0.0399 -0.662,-0.032 -1.19,-0.0879 -1.573,-0.1837 -0.391,-0.0959 -0.679,-0.2317 -0.879,-0.4074 -0.191,-0.1757 -0.343,-0.3914 -0.455,-0.639 l -10.687,-23.4421 -10.559,23.4421 c -0.111,0.2476 -0.271,0.4553 -0.479,0.639 -0.207,0.1757 -0.511,0.3115 -0.918,0.4074 -0.4,0.0958 -0.935,0.1597 -1.598,0.1837 -0.663,0.0239 -1.525,0.0399 -2.58,0.0399 -1.661,0 -2.779,-0.1278 -3.362,-0.3914 -0.583,-0.2556 -0.719,-0.7268 -0.415,-1.4057 l 15.343,-31.7728 c 0.191,-0.3833 0.639,-0.6629 1.35,-0.8386 0.702,-0.1757 1.781,-0.2636 3.218,-0.2636 z"
     fill="#000000"
     id="path17"
     style="fill:#000000" />
</svg>
